<?xml version="1.0" encoding="UTF-8"?>
<svg version="1.1" xmlns="http://www.w3.org/2000/svg" width="512" height="512">
<path d="M0 0 C0.92892059 0.00215515 1.85784119 0.0043103 2.81491089 0.00653076 C16.20867837 0.05641229 29.18612489 0.43947896 42.3125 3.3125 C43.7365918 3.60253906 43.7365918 3.60253906 45.18945312 3.8984375 C74.75276828 9.98003376 103.89121419 21.27831971 128.3125 39.3125 C129.54521237 40.18800787 130.77831468 41.06296685 132.01171875 41.9375 C142.21120675 49.276156 151.35565688 57.51573044 160.3125 66.3125 C160.92947754 66.91626465 161.54645508 67.5200293 162.18212891 68.14208984 C175.82503538 81.61750935 186.86728027 97.68961913 196.3125 114.3125 C196.64846191 114.88871094 196.98442383 115.46492188 197.33056641 116.05859375 C226.41597424 166.08946594 231.45127542 228.81762454 217.04296875 284.19140625 C213.0188587 298.85049843 207.6232495 312.93483806 200.39404297 326.31005859 C199.23595909 328.45421298 198.10513007 330.6117534 196.97265625 332.76953125 C191.55232176 342.94928937 185.42281364 352.24062723 178.3125 361.3125 C177.58546875 362.25222656 176.8584375 363.19195312 176.109375 364.16015625 C167.53063533 374.94712705 158.07906005 385.66147455 147.3125 394.3125 C146.21582936 395.22097227 145.11951038 396.12986912 144.0234375 397.0390625 C96.57587514 436.05959619 37.61689412 452.83900789 -23.37109375 447.8515625 C-66.16211973 443.45336378 -107.48538853 426.69112368 -140.6875 399.3125 C-141.24743652 398.85407715 -141.80737305 398.3956543 -142.38427734 397.92333984 C-156.07126332 386.65417195 -168.12207691 374.56113595 -178.6875 360.3125 C-179.1112793 359.74950195 -179.53505859 359.18650391 -179.97167969 358.60644531 C-200.72167105 330.96637226 -213.64094049 300.02577878 -220.6875 266.3125 C-220.86829102 265.49249512 -221.04908203 264.67249023 -221.23535156 263.82763672 C-232.72441926 210.02545189 -218.87992585 149.76171025 -190.05810547 103.70898438 C-186.79179766 98.76397654 -183.30256687 94.00665074 -179.6875 89.3125 C-178.98109375 88.37664062 -178.2746875 87.44078125 -177.546875 86.4765625 C-172.32103229 79.74244811 -166.54883704 73.49193975 -160.6875 67.3125 C-160.21296387 66.80928223 -159.73842773 66.30606445 -159.24951172 65.78759766 C-151.65701037 57.78858488 -143.52128416 50.89995111 -134.6875 44.3125 C-134.12836914 43.88727051 -133.56923828 43.46204102 -132.99316406 43.02392578 C-123.43549756 35.76779893 -113.33192424 29.83389171 -102.6875 24.3125 C-101.93871582 23.92175293 -101.18993164 23.53100586 -100.41845703 23.12841797 C-69.10308985 6.99338662 -35.04663884 -0.14646006 0 0 Z M41.3125 144.3125 C45.05538574 148.67920004 48.62653652 152.74391441 52.6875 156.75 C53.56148437 157.61496094 54.43546875 158.47992188 55.3359375 159.37109375 C55.98820313 160.01175781 56.64046875 160.65242188 57.3125 161.3125 C53.37543007 166.10514439 49.22120152 170.40504675 44.625 174.5625 C40.03659121 178.7504403 35.57871785 183.02303713 31.25 187.48046875 C29.97322388 188.78999512 29.97322388 188.78999512 28.6706543 190.12597656 C26.9897161 191.85866322 25.31903879 193.60137084 23.65942383 195.35449219 C22.5073645 196.53833496 22.5073645 196.53833496 21.33203125 197.74609375 C20.65245361 198.45822021 19.97287598 199.17034668 19.27270508 199.90405273 C17.3125 201.3125 17.3125 201.3125 15.26220703 201.2043457 C13.14377102 200.23531906 11.78483426 199.21236249 10.09765625 197.609375 C9.50025635 197.04742432 8.90285645 196.48547363 8.28735352 195.90649414 C7.65627686 195.29797607 7.0252002 194.68945801 6.375 194.0625 C5.7162085 193.43786865 5.05741699 192.8132373 4.37866211 192.16967773 C-0.58058237 187.44366947 -5.42795014 182.60918 -10.24365234 177.73754883 C-13.73170341 174.22167628 -17.32213101 170.88848485 -21.09765625 167.6796875 C-23.06407886 165.98866069 -24.89193433 164.18288091 -26.6875 162.3125 C-29.93957092 163.72988489 -32.00111067 165.43776412 -34.4375 168 C-36.98654571 170.67221388 -39.62430301 173.14489687 -42.421875 175.55078125 C-46.89506188 179.43027879 -51.04043356 183.58989501 -55.1875 187.8125 C-59.22706534 191.92564576 -63.25033645 195.99477051 -67.625 199.75390625 C-72.38433998 203.84857978 -76.77361859 208.28939183 -81.1875 212.75 C-82.42113281 213.99040039 -82.42113281 213.99040039 -83.6796875 215.25585938 C-85.68462113 217.27244959 -87.68716253 219.29135236 -89.6875 221.3125 C-88.40815213 224.14890134 -87.12454597 226.09783627 -84.82421875 228.1875 C-84.26669922 228.69796875 -83.70917969 229.2084375 -83.13476562 229.734375 C-82.55404297 230.25515625 -81.97332031 230.7759375 -81.375 231.3125 C-80.80587891 231.83328125 -80.23675781 232.3540625 -79.65039062 232.890625 C-76.42294847 235.82533704 -73.12816807 238.62710053 -69.6875 241.3125 C-61.24034438 233.70110536 -53.10769543 225.82759521 -45.13330078 217.72119141 C-41.00408633 213.54397356 -36.79203908 209.55174316 -32.32739258 205.73364258 C-31.06905729 204.64316026 -29.86490379 203.48990379 -28.6875 202.3125 C-24.9854339 202.59743905 -23.19112641 204.44357853 -20.65332031 207.00610352 C-19.87281311 207.78683731 -19.09230591 208.56757111 -18.28814697 209.3719635 C-17.45571472 210.21987961 -16.62328247 211.06779572 -15.765625 211.94140625 C-14.90563904 212.80563705 -14.04565308 213.66986786 -13.15960693 214.56028748 C-10.41179425 217.32490612 -7.67458964 220.09976862 -4.9375 222.875 C-3.07751175 224.75003251 -1.21684293 226.62439018 0.64453125 228.49804688 C5.20844973 233.09506017 9.76369938 237.70052955 14.3125 242.3125 C18.21897724 240.04904344 21.16306387 237.68527222 24.33203125 234.453125 C25.02542854 233.75192535 25.02542854 233.75192535 25.73283386 233.03656006 C27.20177922 231.54993147 28.66384387 230.0567818 30.125 228.5625 C35.72504708 222.85470565 41.30827401 217.20416389 47.39331055 212.00683594 C51.03956035 208.78778319 54.40589383 205.28115729 57.8125 201.8125 C64.63582751 194.86488602 71.63218228 188.31274822 79.3125 182.3125 C80.12255493 183.13041016 80.12255493 183.13041016 80.94897461 183.96484375 C83.38007188 186.41663455 85.81497479 188.86461051 88.25 191.3125 C89.10013672 192.17101562 89.95027344 193.02953125 90.82617188 193.9140625 C91.63505859 194.72617188 92.44394531 195.53828125 93.27734375 196.375 C94.40064087 197.50615234 94.40064087 197.50615234 95.54663086 198.66015625 C97.03113573 200.42637428 97.03113573 200.42637428 98.3125 200.3125 C98.3125 181.8325 98.3125 163.3525 98.3125 144.3125 C79.5025 144.3125 60.6925 144.3125 41.3125 144.3125 Z M-113.6875 289.3125 C-113.6875 293.9325 -113.6875 298.5525 -113.6875 303.3125 C-38.4475 303.3125 36.7925 303.3125 114.3125 303.3125 C114.3125 298.6925 114.3125 294.0725 114.3125 289.3125 C39.0725 289.3125 -36.1675 289.3125 -113.6875 289.3125 Z " fill="#ff1a75" transform="translate(255.6875,31.6875)"/>
</svg>
