<?xml version="1.0" encoding="UTF-8"?>
<svg version="1.1" xmlns="http://www.w3.org/2000/svg" width="512" height="512">
<path d="M0 0 C2.80863762 2.2067867 5.2198899 4.41687889 7.625 7.0625 C8.36943359 7.87460937 8.36943359 7.87460937 9.12890625 8.703125 C14.45771182 15.06029656 14.90407026 19.21947835 17.625 28.0625 C99.795 28.5575 99.795 28.5575 183.625 29.0625 C184.285 25.7625 184.945 22.4625 185.625 19.0625 C190.1461443 7.7432583 198.0484526 1.27165426 208.7421875 -3.9765625 C218.5656387 -7.94301261 230.18583796 -6.9909065 239.91015625 -3.2578125 C249.84738689 1.57497017 257.13932187 9.57322806 261.0625 19.875 C262.24064144 23.29111723 262.625 25.37232448 262.625 29.0625 C263.69257034 29.04917633 263.69257034 29.04917633 264.78170776 29.0355835 C271.57486463 28.95456525 278.36794695 28.8941009 285.1614666 28.85525131 C288.65196652 28.83460499 292.14205882 28.80672396 295.63232422 28.76074219 C326.24064131 28.36847613 351.97795889 32.3023309 375.0559082 53.97583008 C391.99839347 70.49992623 402.37438963 92.30090305 403.625 116.0625 C403.686875 117.2071875 403.686875 117.2071875 403.75 118.375 C404.35395407 141.32525459 396.57358285 163.66276385 381.625 181.0625 C380.86509766 182.03703125 380.86509766 182.03703125 380.08984375 183.03125 C366.55207381 199.79546634 344.74755258 210.3248596 323.625 213.0625 C319.60428749 213.22950949 315.58483059 213.24747039 311.56103516 213.26782227 C309.74555679 213.28267166 309.74555679 213.28267166 307.8934021 213.29782104 C304.58808305 213.32392889 301.28278712 213.34582363 297.97742891 213.36582303 C294.51807904 213.38775778 291.05877202 213.41510968 287.59945679 213.44187927 C281.05480935 213.49170524 274.510138 213.53668133 267.96544397 213.57990164 C260.51197217 213.62936054 253.0585434 213.68424646 245.60511327 213.73958123 C230.27844865 213.85324619 214.9517444 213.96011867 199.625 214.0625 C199.2191568 214.82329865 198.8133136 215.58409729 198.39517212 216.36795044 C197.8595163 217.36301605 197.32386047 218.35808167 196.77197266 219.38330078 C196.24237946 220.37097443 195.71278625 221.35864807 195.16714478 222.37625122 C190.08690136 231.22548373 181.22565228 236.34211187 171.625 239.0625 C159.98195427 241.31936766 148.58213504 239.67378029 138.625 233.0625 C132.52307084 228.05054862 127.7057844 222.38516845 124.625 215.0625 C124.625 214.4025 124.625 213.7425 124.625 213.0625 C114.35734324 213.12414902 104.08993151 213.20156188 93.82254124 213.29821491 C89.05317998 213.34263533 84.2838986 213.38195085 79.5144043 213.40893555 C74.89765195 213.43525499 70.2812119 213.47585089 65.66465569 213.52568626 C63.91757071 213.54216398 62.17043197 213.55379545 60.42328072 213.56011391 C44.47805647 213.62352003 29.10007996 214.76481426 14.625 222.0625 C13.65304688 222.53171875 12.68109375 223.0009375 11.6796875 223.484375 C-5.28844809 232.43362667 -16.52527613 247.77357332 -22.41015625 265.8046875 C-22.72855469 266.87976563 -23.04695313 267.95484375 -23.375 269.0625 C-23.62121094 269.89007813 -23.86742187 270.71765625 -24.12109375 271.5703125 C-28.46375105 289.24043532 -24.65791769 308.20396995 -16.375 324.0625 C-13.92209282 327.92056558 -11.2413785 331.50423704 -8.375 335.0625 C-7.89417969 335.70703125 -7.41335937 336.3515625 -6.91796875 337.015625 C3.92652188 350.89157267 22.46562335 358.88631557 39.625 361.0625 C47.61041486 361.72428166 55.61519116 361.9451698 63.625 362.0625 C63.73585938 360.86753906 63.84671875 359.67257812 63.9609375 358.44140625 C65.13623138 349.13938516 70.33393772 340.83652597 77.625 335.0625 C87.25047032 327.72785143 97.68617931 325.89902689 109.625 327.0625 C121.00438179 329.36302484 129.93717653 335.62206626 136.625 345.0625 C140.29701859 350.7941444 140.8365747 354.96667233 141.625 362.0625 C206.305 362.0625 270.985 362.0625 337.625 362.0625 C337.955 360.4125 338.285 358.7625 338.625 357.0625 C340.48046875 354.4921875 340.48046875 354.4921875 342.8125 351.9375 C343.56917969 351.08929688 344.32585937 350.24109375 345.10546875 349.3671875 C347.78438741 346.91670377 350.36581835 345.61721055 353.625 344.0625 C353.62858253 343.18039463 353.62858253 343.18039463 353.63223743 342.28046894 C353.6913923 327.96658114 353.76694545 313.65284923 353.86071491 299.33914661 C353.90566655 292.41711258 353.94508259 285.49512993 353.97143555 278.57299805 C353.99687666 271.89447324 354.03778548 265.21620775 354.08818626 258.537817 C354.10488891 255.98813402 354.11638196 253.43841148 354.12261391 250.88868141 C354.13221775 247.32113229 354.16023383 243.75417233 354.19262695 240.18676758 C354.19119186 239.12940903 354.18975677 238.07205048 354.1882782 236.98265076 C354.30459218 227.94239138 354.30459218 227.94239138 357.625 224.0625 C360.82770544 222.46114728 364.14963384 222.57388416 367.625 223.0625 C370.0625 224.6875 370.0625 224.6875 371.625 227.0625 C372.00313684 229.05451497 372.3417216 231.05479871 372.625 233.0625 C373.96137764 233.05250725 373.96137764 233.05250725 375.32475281 233.04231262 C383.72608471 232.98216947 392.12734417 232.93650927 400.52884197 232.90706348 C404.84801617 232.89141611 409.16701228 232.8701949 413.48608398 232.83618164 C417.65524353 232.8035549 421.82423192 232.78564 425.99350929 232.77786827 C427.58311469 232.7723307 429.17271085 232.76151709 430.76224327 232.74530983 C432.99103316 232.723491 435.21911832 232.72053486 437.44799805 232.72192383 C438.71596725 232.71526199 439.98393646 232.70860016 441.29032898 232.70173645 C444.88656642 233.09079773 446.76340398 233.89158348 449.625 236.0625 C451.24630871 239.30511741 451.14814152 242.5542361 450.625 246.0625 C449.396079 248.84029363 447.73454886 251.18560176 445.9375 253.625 C445.50244141 254.24568359 445.06738281 254.86636719 444.61914062 255.50585938 C442.84258583 258.02988315 441.06739562 260.52419745 439.10693359 262.90966797 C437.46096969 264.89753328 437.46096969 264.89753328 435.625 268.0625 C436.33108092 272.15162951 438.97593136 275.15227073 441.4375 278.4375 C442.14519531 279.40171875 442.85289062 280.3659375 443.58203125 281.359375 C444.77480328 282.93757433 445.99111175 284.49938752 447.26171875 286.015625 C450.50592788 289.99419665 451.33954517 293.04543897 451.05859375 298.04296875 C450.4207382 301.01388154 449.06590118 302.33951093 446.625 304.0625 C443.68253273 305.53373364 441.07314978 305.18174765 437.78857422 305.17602539 C437.08602509 305.17617142 436.38347595 305.17631744 435.65963745 305.1764679 C433.33295627 305.17577014 431.00635473 305.16798419 428.6796875 305.16015625 C427.06828861 305.15829158 425.45688916 305.15686791 423.8454895 305.15586853 C419.60071248 305.1520472 415.35596958 305.14222018 411.11120605 305.13116455 C406.78117332 305.12094218 402.45113507 305.11636914 398.12109375 305.11132812 C389.62238016 305.10059758 381.12369432 305.08352575 372.625 305.0625 C372.57013016 310.52624096 372.56750595 315.9866088 372.61279297 321.45043945 C372.62089192 323.30785397 372.61484426 325.16538721 372.59423828 327.02270508 C372.56703739 329.6976982 372.59111495 332.36813652 372.625 335.04296875 C372.59587524 336.2838752 372.59587524 336.2838752 372.56616211 337.54985046 C372.62633703 339.96853595 372.76126703 341.79893735 373.625 344.0625 C376.06178321 346.26334478 378.71442119 347.59039945 381.625 349.0625 C388.14687823 355.061719 390.89275376 360.67068471 391.58203125 369.44921875 C391.71514297 377.54483158 388.97496056 384.00679997 383.625 390.0625 C377.18993532 395.53815504 370.32203664 398.5906846 361.7265625 398.30859375 C354.40995044 397.45181576 347.76266915 394.37769023 342.625 389.0625 C342.4195799 388.43252609 342.21415979 387.80255219 342.00251484 387.15348816 C340.92267965 384.33975227 339.98479853 382.97589466 337.625 381.0625 C331.41164996 379.78074551 325.2028032 379.99314182 318.8815918 380.0625 C316.93012382 380.05489374 314.97866683 380.04377473 313.02723694 380.02940369 C307.72977105 380.00035899 302.43349418 380.0205208 297.13607001 380.0494194 C291.5999869 380.0712849 286.0640993 380.04803535 280.5280304 380.02954102 C270.04491385 380.00139055 259.56225451 380.01390086 249.07915097 380.04096508 C237.14449326 380.06980112 225.21003255 380.05339181 213.27537286 380.03315353 C188.72513566 379.99253744 164.17519931 380.00883309 139.625 380.0625 C139.48255859 380.84713623 139.34011719 381.63177246 139.19335938 382.44018555 C137.51814125 390.16935988 129.71068266 396.54828474 123.625 401.0625 C113.69848481 406.58253328 102.49411724 407.73576308 91.41015625 405.37890625 C80.68448437 401.7535389 72.31021631 394.48190906 66.6875 384.6875 C65.625 382.0625 65.625 382.0625 65.625 380.0625 C64.92640869 380.07821045 64.22781738 380.0939209 63.50805664 380.11010742 C33.12445456 380.7014611 7.57731096 376.79953187 -15.21484375 355.15625 C-15.92769531 354.4653125 -16.64054687 353.774375 -17.375 353.0625 C-17.97441406 352.5365625 -18.57382812 352.010625 -19.19140625 351.46875 C-34.43220082 337.60705285 -43.27330902 315.21376449 -44.5012207 294.98291016 C-45.39617922 269.40698447 -38.81504077 245.50537231 -21.375 226.0625 C-20.56289063 225.15628906 -19.75078125 224.25007812 -18.9140625 223.31640625 C-0.31696623 203.65583966 24.5970085 195.65696489 51.15509033 194.89080811 C55.77301265 194.81156994 60.38954793 194.8361768 65.0078125 194.8671875 C66.68602324 194.87093227 68.36423621 194.87377228 70.04244995 194.87576294 C74.39225644 194.88328443 78.74192258 194.90282938 83.0916748 194.9251709 C87.55719099 194.94588161 92.02273056 194.95481775 96.48828125 194.96484375 C105.20058419 194.98609008 113.91277449 195.0200811 122.625 195.0625 C122.74544678 194.39355713 122.86589355 193.72461426 122.98999023 193.03540039 C123.15700439 192.14844482 123.32401855 191.26148926 123.49609375 190.34765625 C123.65779053 189.47246338 123.8194873 188.59727051 123.98608398 187.69555664 C126.26203661 178.31605758 133.1373501 170.65393967 141.078125 165.45703125 C151.79831184 159.70925812 163.02756854 158.68085129 174.76953125 161.93359375 C187.11104094 166.51215126 193.89044005 174.27166716 199.34765625 185.828125 C200.45447774 188.63071886 201.08665164 191.11831942 201.625 194.0625 C217.14231471 194.15632975 232.65960792 194.22666716 248.17714024 194.26974869 C255.38373413 194.29029224 262.5901508 194.31825368 269.79663086 194.36425781 C276.08465024 194.4043793 282.37254115 194.4299923 288.660685 194.43885398 C291.98414433 194.44402655 295.30694785 194.45817181 298.63034248 194.48542023 C322.67070119 194.67456244 342.29138791 191.85868636 361.0625 175.6015625 C374.42998822 162.35633789 383.36134331 145.01735039 384.625 126.0625 C384.70234375 125.00289063 384.70234375 125.00289063 384.78125 123.921875 C385.48997588 106.08560696 379.17111403 89.19184969 368.625 75.0625 C368.08101563 74.33289063 367.53703125 73.60328125 366.9765625 72.8515625 C355.73878108 58.98249567 338.88850191 51.2539968 321.625 48.0625 C316.67298709 47.59582374 311.78671338 47.59023428 306.81640625 47.671875 C305.47021846 47.67936587 304.12401952 47.68504526 302.77781677 47.68902588 C299.2908032 47.70405937 295.80449148 47.74313739 292.31774902 47.7878418 C288.73731981 47.82928622 285.15677349 47.84714009 281.57617188 47.8671875 C274.59216557 47.90966257 267.60861677 47.97763024 260.625 48.0625 C260.35446808 48.61308075 260.08393616 49.1636615 259.8052063 49.73092651 C259.44812592 50.45248932 259.09104553 51.17405212 258.72314453 51.91748047 C258.37011261 52.63306122 258.01708069 53.34864197 257.65335083 54.08590698 C252.92502504 63.17422146 244.26493854 68.63835343 234.8125 71.9375 C223.63629637 74.85835447 212.41990402 73.52254073 202.37890625 67.77734375 C196.18045907 63.439639 189.4994736 57.17609627 186.625 50.0625 C186.625 49.0725 186.625 48.0825 186.625 47.0625 C129.865 47.0625 73.105 47.0625 14.625 47.0625 C14.295 48.7125 13.965 50.3625 13.625 52.0625 C7.63423731 62.7816861 -1.81614411 69.14988338 -13.28515625 72.64453125 C-25.062225 74.999945 -36.03428592 72.19161038 -45.984375 65.85546875 C-54.10531122 59.76476659 -59.16514504 51.93227466 -61.375 42.0625 C-62.33826407 28.30158469 -61.37964758 17.67244232 -52.1875 6.6875 C-37.85451645 -8.14630328 -17.57327167 -10.08835966 0 0 Z M-40.953125 21.7265625 C-43.93569668 26.62650169 -44.79865184 31.81973286 -44.05859375 37.484375 C-42.06508471 44.75629477 -37.45228819 50.20451468 -31.0625 54.0625 C-23.86579183 56.01414967 -17.69079843 56.0250741 -11.125 52.265625 C-6.27600421 48.9319404 -2.71909906 44.72822471 -0.6875 39.1875 C0.48975383 31.18217399 -1.1226708 25.40881767 -5.5625 18.8125 C-10.50239234 13.98238305 -14.91825216 11.85156154 -21.875 11.5625 C-30.18564827 11.92982147 -35.74274917 15.29724554 -40.953125 21.7265625 Z M206.8125 18.875 C202.56973903 25.05730884 200.37353641 30.602319 201.625 38.0625 C203.84271358 45.15489801 207.21319534 49.19327296 213.5390625 53.00390625 C218.8647083 55.70662163 224.26785918 55.97758272 230.00390625 54.4140625 C236.45609486 51.85938884 240.77378129 47.9557847 243.76171875 41.671875 C245.68507083 35.858304 245.57882504 29.36583271 243.0625 23.75 C239.73854387 18.00969278 234.90185043 14.12972619 228.625 12.0625 C219.68293729 10.91299717 213.19846716 12.48903284 206.8125 18.875 Z M144.625 186.0625 C140.68150833 191.32865348 139.93390458 196.60508094 140.1796875 203.09375 C141.11996139 209.36224263 144.00449646 214.1208731 149 218 C154.56839968 221.46824894 159.89452605 222.61064014 166.35546875 221.6640625 C173.01349891 219.89928342 177.7782449 215.60635294 181.625 210.0625 C184.30004936 204.20286808 184.46651669 198.19289534 182.6875 192.0625 C180.47903265 186.76636502 176.24560295 183.28689404 171.625 180.0625 C161.47955735 175.93554028 152.19856235 178.31681123 144.625 186.0625 Z M372.625 251.0625 C372.625 262.9425 372.625 274.8225 372.625 287.0625 C389.785 287.0625 406.945 287.0625 424.625 287.0625 C422.04557894 282.54851315 419.56857513 278.42942428 416.578125 274.25 C415.14706675 270.96560402 415.21767238 268.61530202 415.625 265.0625 C416.8428082 262.54179047 418.41982529 260.39961855 420.125 258.1875 C423.09464812 254.84273904 423.09464812 254.84273904 424.625 251.0625 C407.465 251.0625 390.305 251.0625 372.625 251.0625 Z M84.0390625 354.9921875 C80.53609225 360.1208456 80.25893688 364.98993554 81.1640625 370.93359375 C82.68659287 377.9656196 87.04384234 381.90609084 92.625 386.0625 C97.59621095 389.12484761 102.98619182 388.83930998 108.625 388.0625 C114.80672328 385.74328796 119.64583312 382.12700218 122.78515625 376.26171875 C125.24469716 369.82115349 125.26595192 363.58926288 122.765625 357.16796875 C120.04027135 352.13726459 116.19224092 348.97918809 111.3125 346.125 C99.87478234 342.82938644 91.43823163 345.83613803 84.0390625 354.9921875 Z M354.625 366.0625 C353.23711947 369.44545879 353.50260051 370.72250142 354.75 374.1875 C356.84402111 377.39833237 358.05613962 378.68362213 361.625 380.0625 C365.90599217 380.0625 367.86406498 379.78338581 371 376.8125 C372.67409432 373.97941731 373.54492702 372.34549233 373.625 369.0625 C372.08141562 365.12635984 371.17660136 363.43023424 367.625 361.0625 C361.33618825 360.35247287 358.57794342 360.67212262 354.625 366.0625 Z " fill="#000000" transform="translate(61.375,55.9375)"/>
</svg>
